<?xml version="1.0" encoding="UTF-8" standalone="no"?>
<svg
   xmlns:dc="http://purl.org/dc/elements/1.1/"
   xmlns:cc="http://creativecommons.org/ns#"
   xmlns:rdf="http://www.w3.org/1999/02/22-rdf-syntax-ns#"
   xmlns:svg="http://www.w3.org/2000/svg"
   xmlns="http://www.w3.org/2000/svg"
   version="1.1"
   id="svg908"
   width="512"
   height="512"
   viewBox="0 0 512 512">
  <metadata
     id="metadata914">
    <rdf:RDF>
      <cc:Work
         rdf:about="">
        <dc:format>image/svg+xml</dc:format>
        <dc:type
           rdf:resource="http://purl.org/dc/dcmitype/StillImage" />
        <dc:title></dc:title>
      </cc:Work>
    </rdf:RDF>
  </metadata>
  <defs
     id="defs912" />
  <g
     id="g916">
    <path
       style="fill:#000000"
       d="m 240.60328,407.04072 c -21.65791,-5.69922 -40,-27.29821 -40,-47.10257 v -4.3185 h 17.03138 c 12.75306,0 17.12813,0.314 17.41648,1.25 0.2118,0.6875 0.65418,2.47925 0.98307,3.98166 0.80167,3.66221 6.27692,9.74832 10.27133,11.4173 7.35377,3.0726 15.68999,1.08513 21.04891,-5.01834 1.77096,-2.01702 3.48902,-4.89655 3.8179,-6.39896 0.32889,-1.50241 0.77127,-3.29416 0.98307,-3.98166 0.28835,-0.936 4.66342,-1.25 17.41648,-1.25 h 17.03138 v 4.3185 c 0,10.34118 -6.24947,23.6534 -15.48065,32.97585 -13.00374,13.13235 -33.02393,18.73059 -50.51935,14.12672 z m -105.70685,-82.8613 c -16.37115,-5.14964 -23.80256,-22.52443 -16.36146,-38.25344 3.10449,-6.5623 7.11268,-10.21873 16.39197,-14.95343 3.55501,-1.81392 5.23161,-3.43327 6.37477,-6.15707 3.67312,-8.75193 6.47971,-29.22465 9.34891,-68.19583 1.7806,-24.18529 6.21428,-40.84495 15.21835,-57.18343 8.7093,-15.8036 19.17956,-26.27694 35.33219,-35.34259 6.22467,-3.4936 9.32734,-5.958386 11.52956,-9.159206 8.86807,-12.889288 26.78658,-21.077964 43.87256,-20.049544 14.58169,0.877684 27.90139,7.65643 36.65618,18.655294 3.67411,4.61588 6.82625,7.202036 13.05313,10.709376 20.79024,11.71027 34.44167,28.61931 43.08809,53.3701 4.32782,12.38858 5.97079,22.00804 7.68588,45 2.06872,27.73263 3.2921,38.85137 5.4464,49.5 2.69332,13.31295 4.05635,15.94945 9.74666,18.8529 9.44218,4.81782 13.30603,8.38488 16.51843,15.24961 2.6478,5.65822 2.97568,7.30938 2.61785,13.18294 -0.6617,10.86122 -5.76633,18.55285 -15.48996,23.34017 l -4.82266,2.37438 -116,0.19153 c -93.85616,0.15497 -116.80307,-0.0611 -120.20685,-1.13176 z m 201.167,-42.30977 c -7.53116,-15.02962 -9.79256,-27.27594 -13.43393,-72.75 -2.0986,-26.20752 -3.35476,-33.45209 -7.69366,-44.37097 -6.95789,-17.50956 -18.59648,-28.54487 -37.08256,-35.16036 -3.4375,-1.23016 -6.25,-2.65422 -6.25,-3.16459 0,-0.51036 -1.10502,-3.26256 -2.4556,-6.11601 -6.75901,-14.28012 -24.32979,-14.28012 -31.0888,0 -1.35058,2.85345 -2.4556,5.60565 -2.4556,6.11601 0,0.51037 -2.8125,1.93443 -6.25,3.16459 -16.17334,5.78785 -26.55642,14.5992 -34.01532,28.86629 -6.5891,12.60338 -8.49934,21.57047 -10.79305,50.66504 -3.58043,45.41594 -5.87285,57.88833 -13.37142,72.75 l -4.41488,8.75 h 86.84467 86.84467 z m -290.001524,0.9251 c -4.978154,-2.32872 -9.080586,-7.05743 -10.411835,-12.00132 -2.385167,-8.85783 -5.175762,-28.89093 -6.262769,-44.9591 -2.305065,-34.07355 3.716763,-74.77532 15.714465,-106.21468 5.256884,-13.77539 16.170639,-36.035219 19.304236,-39.373157 9.472475,-10.090171 25.610123,-5.948498 29.232049,7.502311 1.426772,5.29863 0.59798,8.82468 -4.182484,17.794136 -11.142943,20.90721 -19.183195,45.36734 -23.527877,71.57671 -2.798717,16.88331 -2.424524,53.64067 0.712606,70 3.165566,16.50762 3.53474,23.49284 1.471416,27.84098 -3.641104,7.67305 -14.299167,11.45978 -22.049807,7.83412 z m 402.960444,0.74993 c -4.62861,-1.34398 -9.95548,-7.05708 -11.21812,-12.03147 -0.90736,-3.57473 -0.67994,-6.35045 1.36048,-16.60512 10.0731,-50.62479 2.29452,-104.88199 -21.41372,-149.36515 -4.78047,-8.969456 -5.60926,-12.495506 -4.18249,-17.794136 3.62193,-13.450809 19.75958,-17.592482 29.23205,-7.502311 3.1336,3.337938 14.04735,25.597767 19.30424,39.373157 11.9977,31.43936 18.01953,72.14113 15.71446,106.21468 -1.087,16.06817 -3.8776,36.10127 -6.26277,44.9591 -1.33842,4.97053 -5.45656,9.69569 -10.41183,11.94656 -4.38923,1.99375 -7.35031,2.19031 -12.1223,0.80469 z M 100.60328,260.55567 c -4.54551,-1.90202 -9.017031,-7.18339 -10.516727,-12.42145 -6.417611,-22.41505 -6.979755,-57.03469 -1.380443,-85.01457 4.618642,-23.07945 18.55778,-56.85114 25.71982,-62.31389 4.24802,-3.240126 13.32542,-4.202676 17.76701,-1.883976 5.84806,3.052926 10.41034,10.130586 10.41034,16.149986 0,1.18452 -1.84348,5.95487 -4.09662,10.60078 -10.03066,20.68289 -15.65382,39.23408 -18.01355,59.42793 -1.50314,12.86332 -0.60537,34.89235 1.98056,48.59844 2.69088,14.26231 1.37978,19.65838 -6.14071,25.27323 -3.06778,2.29043 -11.91238,3.18082 -15.72968,1.58352 z m 293.00051,-0.0595 c -2.94118,-1.17281 -6.74746,-4.56578 -8.24872,-7.35302 -2.4664,-4.57911 -2.60566,-8.93134 -0.62218,-19.44426 2.58593,-13.70609 3.4837,-35.73512 1.98056,-48.59844 -2.35973,-20.19385 -7.98289,-38.74504 -18.01355,-59.42793 -2.25314,-4.64588 -4.09662,-9.41623 -4.09662,-10.60075 0,-6.0194 4.56228,-13.09706 10.41034,-16.149986 4.44159,-2.3187 13.51899,-1.35615 17.76701,1.883976 7.16204,5.46275 21.10117,39.23444 25.71982,62.31389 5.59931,27.97988 5.03716,62.59952 -1.38045,85.01457 -2.97885,10.40438 -13.95526,16.17444 -23.51621,12.36198 z"
       id="path1481" />
  </g>
</svg>
