<?xml version="1.0" encoding="UTF-8" standalone="no"?>
<svg
   xmlns:dc="http://purl.org/dc/elements/1.1/"
   xmlns:cc="http://creativecommons.org/ns#"
   xmlns:rdf="http://www.w3.org/1999/02/22-rdf-syntax-ns#"
   xmlns:svg="http://www.w3.org/2000/svg"
   xmlns="http://www.w3.org/2000/svg"
   version="1.1"
   id="svg2173"
   width="512"
   height="512"
   viewBox="0 0 512 512">
  <metadata
     id="metadata2179">
    <rdf:RDF>
      <cc:Work
         rdf:about="">
        <dc:format>image/svg+xml</dc:format>
        <dc:type
           rdf:resource="http://purl.org/dc/dcmitype/StillImage" />
        <dc:title></dc:title>
      </cc:Work>
    </rdf:RDF>
  </metadata>
  <defs
     id="defs2177" />
  <g
     id="g2181">
    <path
       style="fill:#000000;stroke-width:0.999999"
       d="m 168.4267,481.64892 c -12.06241,-3.99109 -12.83287,-4.67399 -72.199956,-63.99416 -55.93492,-55.89072 -57.28163,-57.32764 -60.89286,-64.97178 -3.20953,-6.79386 -3.75673,-9.0374 -4.18059,-17.14087 -0.5958,-11.39055 1.66952,-20.03204 7.62411,-29.08364 2.54605,-3.87027 36.11466,-38.04778 95.784526,-97.52197 84.82637,-84.54818 92.36481,-91.80007 98.39122,-94.65126 9.26393,-4.3829 14.24779,-5.56308 24.24743,-5.74181 l 8.77388,-0.15682 19.72612,-19.580764 c 12.04694,-11.95817 21.47793,-20.48003 24.22612,-21.89078 6.32819,-3.2485 17.66247,-3.26842 23.84859,-0.0419 l 4.34858,2.26809 6.15142,-2.59111 c 8.22346,-3.46391 18.49631,-5.51162 27.75651,-5.53276 l 7.60511,-0.0174 4.07282,-5.80621 c 7.32558,-10.44333 17.12653,-17.95233 29.74294,-22.78756 8.35878,-3.2035 23.60477,-4.35127 32.70474,-2.46213 17.65675,3.66553 32.48886,18.04864 37.31652,36.18687 1.8896,7.09948 1.83521,20.58036 -0.11387,28.22469 -3.64685,14.303064 -14.10286,29.373574 -25.41655,36.633554 l -5.01682,3.21928 -0.0174,8.14576 c -0.021,9.83523 -2.02276,19.86935 -5.46308,27.38399 l -2.54941,5.56865 2.08258,4.30204 c 3.01096,6.2198 3.54405,13.82571 1.46949,20.96605 -1.64359,5.65703 -2.65015,6.86056 -22.25432,26.60918 l -20.53287,20.68417 -0.24464,9.31583 c -0.29689,11.30517 -2.87018,20.04232 -8.36091,28.38797 -2.51959,3.82965 -36.59326,38.51796 -96.26475,98.00122 -91.22888,90.94109 -92.45695,92.11512 -99.86472,95.47052 -6.78381,3.07278 -8.50266,3.42255 -18,3.66286 -6.7199,0.17001 -11.94004,-0.2108 -14.5,-1.05781 z m 21.28984,-28.57818 c 2.09189,-1.08777 43.24429,-41.54284 94.34875,-92.75 74.56478,-74.71464 90.87043,-91.5301 91.94595,-94.82074 2.11621,-6.47471 1.51858,-14.80427 -1.4169,-19.74796 -1.38863,-2.33862 -25.61941,-27.26157 -53.8462,-55.38433 -55.53443,-55.32974 -53.7402,-53.8403 -64.59837,-53.62479 -8.20274,0.16282 -12.44911,2.92945 -27.19633,17.71921 l -13.47326,13.51213 16.22326,16.33139 c 17.60217,17.7195 18.37905,19.07617 13.77101,24.04833 -1.69343,1.82724 -3.46928,2.64602 -5.73896,2.64602 -2.91107,0 -5.11772,-1.82848 -19.30726,-15.99847 l -16.02054,-15.99847 -23.4667,23.48264 -23.46669,23.48264 16.2262,16.33435 c 8.92441,8.9839 16.2262,17.11337 16.2262,18.06549 0,5.41585 -6.72702,10.95708 -10.65927,8.78035 -1.0124,-0.56043 -8.81128,-8.02411 -17.33085,-16.58597 l -15.49013,-15.56701 -23.74528,23.72982 -23.745276,23.72982 16.485396,16.58901 c 9.06697,9.12395 16.4854,17.14387 16.4854,17.82206 0,4.35971 -5.09434,9.13374 -9.74658,9.13374 -0.889,0 -8.96525,-7.30022 -17.94721,-16.22271 l -16.330836,-16.22271 -12.5939,12.47271 c -7.18158,7.11246 -13.39834,14.19174 -14.46573,16.47271 -2.28606,4.88523 -2.42194,10.33813 -0.3808,15.28212 2.1206,5.13648 107.327846,110.65354 112.965066,113.29772 5.16935,2.42473 11.61627,2.42113 16.28984,-0.009 z m 214.21488,-243.57547 17.48329,-17.50474 -49.74288,-49.74287 -49.74287,-49.742884 -17.74747,17.747484 -17.74748,17.74747 49.49256,49.50014 C 363.14746,204.72494 385.65064,227 385.93362,227 c 0.28298,0 8.38199,-7.87713 17.9978,-17.50473 z M 416.1577,168.25 c 3.00686,-3.41469 6.68853,-12.08271 7.8811,-18.55505 1.14466,-6.21226 0.57547,-14.67171 -1.72975,-25.70795 -0.4741,-2.2698 0.60756,-3.28597 11.17668,-10.5 6.43588,-4.39285 13.42794,-9.94581 15.53793,-12.33991 5.57379,-6.324304 8.16438,-13.944054 7.73031,-22.737294 -0.41508,-8.40849 -3.36138,-13.74956 -10.01279,-18.15126 -3.73653,-2.47272 -5.0567,-2.75854 -12.74146,-2.75854 -7.4391,0 -9.3005,0.37322 -14.07303,2.82171 -7.63103,3.91501 -10.07534,6.46465 -19.20087,20.02829 -7.38967,10.98355 -8.16734,11.80952 -10.63587,11.29636 -11.25321,-2.33928 -19.61859,-2.90816 -25.85821,-1.75847 -6.77751,1.24881 -13.97172,4.37416 -18.31458,7.95634 l -2.49046,2.05423 34.99463,35.050774 C 397.66839,154.22715 413.68614,170 414.01635,170 c 0.3302,0 1.29381,-0.7875 2.14135,-1.75 z"
       id="path2746" />
  </g>
</svg>
