<?xml version="1.0" encoding="UTF-8" standalone="no"?>
<svg
   xmlns:dc="http://purl.org/dc/elements/1.1/"
   xmlns:cc="http://creativecommons.org/ns#"
   xmlns:rdf="http://www.w3.org/1999/02/22-rdf-syntax-ns#"
   xmlns:svg="http://www.w3.org/2000/svg"
   xmlns="http://www.w3.org/2000/svg"
   version="1.1"
   id="svg2784"
   width="900"
   height="900"
   viewBox="0 0 900 900">
  <metadata
     id="metadata2790">
    <rdf:RDF>
      <cc:Work
         rdf:about="">
        <dc:format>image/svg+xml</dc:format>
        <dc:type
           rdf:resource="http://purl.org/dc/dcmitype/StillImage" />
        <dc:title></dc:title>
      </cc:Work>
    </rdf:RDF>
  </metadata>
  <defs
     id="defs2788" />
  <g
     id="g2792">
    <path
       style="fill:#000000"
       d="m 315.1114,832.92182 c -28.96141,-5.43343 -52.44223,-27.55752 -59.5437,-56.10325 -1.97202,-7.92689 -2.00198,-10.67587 -1.68944,-155 0.31618,-146.00087 0.33165,-146.98429 2.44699,-155.51928 4.94715,-19.96088 11.7426,-35.73044 22.36946,-51.9107 8.21166,-12.50292 29.03756,-33.28448 41.08747,-41 l 8.58977,-5.5 0.43753,-18 c 0.39763,-16.35843 0.68741,-18.72959 3.17749,-26 3.96923,-11.58915 9.84009,-20.91032 18.7189,-29.72 l 7.78058,-7.72001 -4.29307,-3.77999 -4.29308,-3.78 -14.89445,0.63243 c -34.11326,1.44846 -46.93141,2.12022 -47.56461,2.49269 -0.36859,0.21682 -10.21393,11.82365 -21.87855,25.79295 l -21.2084,25.39872 -28.12144,-23.53451 c -15.4668,-12.94397 -28.07701,-24.04439 -28.0227,-24.66758 0.12625,-1.44852 185.20031,-223.614693 186.28074,-223.614693 0.44416,0 12.44413,9.714046 26.66661,21.586769 14.22248,11.872723 26.93129,22.430194 28.24181,23.461034 l 2.38274,1.87427 -18.35309,21.93928 -18.3531,21.93927 2.14919,35.00332 c 1.18206,19.25182 2.40662,35.41983 2.72125,35.9289 0.31462,0.50908 12.74556,11.68994 27.62431,24.84637 l 27.05227,23.92078 19.24426,0.57354 c 17.23918,0.51377 20.07779,0.84973 27.24426,3.22441 11.65537,3.86212 19.8927,9.08274 29.5,18.69641 9.74742,9.75389 13.95873,16.36506 18.31015,28.74443 2.91152,8.28299 3.10212,9.7506 3.49192,26.88731 l 0.41231,18.12611 3.81749,2.14555 c 11.35008,6.3791 28.96457,22.28132 39.43569,35.60224 15.90034,20.22775 25.28015,41.26364 29.58488,66.34937 1.86798,10.88561 1.94756,17.18217 1.94756,154.09004 0,139.08943 -0.0508,142.943 -1.98624,150.65063 -3.47768,13.84946 -9.10357,23.5644 -19.97778,34.49816 -8.18315,8.22796 -10.88371,10.24872 -19.03598,14.24412 -17.98076,8.81229 -5.97932,8.11353 -143,8.32588 -96.73611,0.14991 -122.92673,-0.0794 -128.5,-1.12497 z M 553.35189,622.13859 c -0.28696,-125.45244 -0.46006,-137.78658 -2.01386,-143.4925 -7.48606,-27.4906 -28.16827,-47.99761 -55.49665,-55.02653 -5.92913,-1.52499 -12.50134,-1.73097 -55.22998,-1.73097 -42.72864,0 -49.30085,0.20598 -55.22998,1.73097 -27.41438,7.05104 -47.37506,26.79594 -55.36757,54.76903 -1.76207,6.16711 -1.87254,13.52917 -2.15704,143.75 l -0.29985,137.25 H 440.6114 553.66584 Z m 20.01143,-335.80509 -111.74809,-55.94477 16.6929,-33.40354 16.6929,-33.40355 112.05519,56.013 c 61.63035,30.80714 112.19357,56.1396 112.36271,56.29433 0.5476,0.50097 -32.78862,66.50145 -33.56047,66.44446 -0.41088,-0.0303 -51.0337,-25.23031 -112.49514,-55.99993 z"
       id="path3357" />
  </g>
</svg>
