<?xml version="1.0" encoding="UTF-8" standalone="no"?>
<svg
   xmlns:dc="http://purl.org/dc/elements/1.1/"
   xmlns:cc="http://creativecommons.org/ns#"
   xmlns:rdf="http://www.w3.org/1999/02/22-rdf-syntax-ns#"
   xmlns:svg="http://www.w3.org/2000/svg"
   xmlns="http://www.w3.org/2000/svg"
   version="1.1"
   id="svg833"
   width="512"
   height="512"
   viewBox="0 0 512 512">
  <metadata
     id="metadata839">
    <rdf:RDF>
      <cc:Work
         rdf:about="">
        <dc:format>image/svg+xml</dc:format>
        <dc:type
           rdf:resource="http://purl.org/dc/dcmitype/StillImage" />
        <dc:title></dc:title>
      </cc:Work>
    </rdf:RDF>
  </metadata>
  <defs
     id="defs837" />
  <g
     id="g841">
    <path
       style="fill:#000000"
       d="M 234.5,430.54353 C 207.92639,427.2694 184.36933,419.42455 162.74202,406.64705 111.77208,376.53383 78.778415,324.99788 73.067777,266.57632 72.42598,260.01055 72,227.97741 72,186.28087 V 116.90909 L 74.454545,114.45455 76.909091,112 H 256 435.09091 l 2.51642,2.51642 2.51642,2.51642 -0.42299,76.23358 c -0.45725,82.40673 -0.46562,82.54648 -6.21303,103.71839 -13.62445,50.18881 -49.72866,93.57418 -96.98773,116.54729 -30.74973,14.94776 -68.13878,21.18346 -102,17.01143 z m 39.52623,-15.56785 c 9.45101,-1.14245 23.26784,-3.75679 26.64933,-5.04243 2.19261,-0.83363 2.1762,-0.90596 -2.18669,-9.63659 -12.20943,-24.43246 -13.73068,-53.78362 -4.11445,-79.3849 5.3056,-14.12509 11.78614,-24.02241 23.37558,-35.70004 L 328,274.88372 V 201.44186 128 h -76 -76 v 71.35842 71.35842 l 5.75,3.79093 c 7.19745,4.74522 18.65798,16.25613 23.95022,24.0555 21.24324,31.30697 23.91052,69.35483 7.19514,102.63644 -2.12691,4.23484 -3.5177,7.91566 -3.09065,8.17959 0.42705,0.26394 3.9082,1.21893 7.73588,2.12221 17.48842,4.12701 39.75535,5.49655 56.48564,3.47417 z M 198.46638,393.75 c 6.65795,-13.52524 8.75158,-22.55611 8.75158,-37.75 0,-15.15811 -2.10444,-24.27396 -8.65707,-37.5 -10.67178,-21.54029 -30.23662,-37.33255 -54.06089,-43.63666 -14.78751,-3.91291 -36.06038,-2.66004 -50.64171,2.98254 l -2.64171,1.02227 1.408025,6.71712 c 8.741845,41.70376 37.805495,82.079 75.896395,105.43529 7.96922,4.88651 22.25793,11.97944 24.13258,11.97944 0.69266,0 3.30842,-4.1625 5.8128,-9.25 z m 129.88627,5.41332 c 37.66373,-17.73629 67.84494,-50.12311 83.75492,-89.87562 3.64872,-9.11666 9.03645,-29.47882 8.06379,-30.47598 -0.36925,-0.37856 -4.72136,-1.90265 -9.67136,-3.38688 -12.35343,-3.70409 -30.80562,-3.95884 -43.3446,-0.59841 -44.7632,11.9965 -71.35915,56.40008 -60.56829,101.12251 C 308.37906,383.37562 317.47142,403 319.1204,403 c 0.59669,0 4.7512,-1.72651 9.23225,-3.83668 z m 36.06323,-140.43574 c 6.60127,-1.73233 10.92725,-2.11599 23.58412,-2.09163 13.40855,0.0258 16.78185,0.37415 25,2.58153 5.225,1.40343 9.8375,2.35206 10.25,2.10809 0.4125,-0.24398 0.75,-19.54205 0.75,-42.88459 L 424,176 h -40 -40 v 44.92994 44.92995 l 6.16588,-2.50542 c 3.39123,-1.37798 9.80373,-3.46008 14.25,-4.62689 z M 101,258.71782 c 6.74022,-1.69611 11.50198,-2.13894 23,-2.13894 14.0767,0 18.46274,0.65141 33.75,5.01251 l 2.25,0.64187 V 219.11663 176 H 124 88 v 41.41821 c 0,22.78002 0.283069,42.15588 0.629042,43.05747 0.390889,1.01864 1.242733,1.40109 2.25,1.01017 C 91.770569,261.13985 96.325,259.89424 101,258.71782 Z M 160,144 V 128 H 124 88 v 16 16 h 36 36 z m 264,0 v -16 h -40 -40 v 16 16 h 40 40 z"
       id="path845" />
  </g>
</svg>
