<?xml version="1.0" encoding="UTF-8" standalone="no"?>
<svg
   xmlns:dc="http://purl.org/dc/elements/1.1/"
   xmlns:cc="http://creativecommons.org/ns#"
   xmlns:rdf="http://www.w3.org/1999/02/22-rdf-syntax-ns#"
   xmlns:svg="http://www.w3.org/2000/svg"
   xmlns="http://www.w3.org/2000/svg"
   version="1.1"
   id="svg851"
   width="409.60001"
   height="409.60001"
   viewBox="0 0 409.60001 409.60001">
  <metadata
     id="metadata857">
    <rdf:RDF>
      <cc:Work
         rdf:about="">
        <dc:format>image/svg+xml</dc:format>
        <dc:type
           rdf:resource="http://purl.org/dc/dcmitype/StillImage" />
        <dc:title></dc:title>
      </cc:Work>
    </rdf:RDF>
  </metadata>
  <defs
     id="defs855" />
  <g
     id="g859">
    <path
       style="fill:#000000;stroke-width:3.2"
       d="M 159.05968,396.34328 C 102.68936,384.23634 50.337288,343.60149 25.058347,292.33355 0.26913144,242.05881 -3.5544206,193.18539 13.18135,140.51937 28.039429,93.76229 65.446156,49.253394 108.75642,26.798084 c 28.26764,-14.65608 31.72513,-11.70406 21.52536,18.37841 -9.05043,26.692669 -12.14488,73.996786 -6.52981,99.819546 13.94436,64.12773 64.18896,117.00382 129.87502,136.67706 26.87371,8.04879 73.20532,7.37391 100.61156,-1.46554 17.61254,-5.68064 21.44816,-6.03261 25.17101,-2.30975 6.86646,6.86646 -9.57153,34.14491 -38.12154,63.26186 -19.25548,19.63785 -29.66887,27.28771 -51.2,37.61248 -44.80061,21.48307 -86.6709,27.09798 -131.02834,17.57113 z m 99.20002,-22.72704 c 13.2,-4.31337 31.86519,-13.02205 41.4782,-19.35267 18.07938,-11.90608 45.58989,-38.23403 51.50996,-49.29577 3.23808,-6.05043 2.66227,-6.21057 -13.60349,-3.78314 -67.64555,10.09511 -128.56969,-8.4694 -174.35781,-53.12948 -51.20102,-49.93964 -69.870189,-116.56117 -53.67357,-191.53581 1.23568,-5.719996 1.11971,-10.399996 -0.25772,-10.399996 -6.23104,0 -38.633591,28.604701 -51.831594,45.756496 C 1.0167914,165.3108 9.1450004,269.13993 76.364863,332.55173 127.76213,381.03733 191.50815,395.4286 258.2597,373.61624 Z m 10.83792,-188.08653 c -1.15158,-3.00096 3.76418,-11.29584 12.84844,-21.68051 8.0925,-9.25095 14.71364,-17.92464 14.71364,-19.27486 0,-1.35023 -6.6,-2.45497 -14.66667,-2.45497 -21.33791,0 -16.91823,-7.71856 5.14717,-8.98904 19.62589,-1.13002 31.9195,1.19685 31.9195,6.04156 0,1.83183 -7.2,10.94353 -16,20.24823 -8.8,9.3047 -16,17.78325 -16,18.84122 0,1.05796 7.56,2.35883 16.8,2.8908 25.65689,1.47715 20.0664,7.24426 -8.04845,8.30271 -19.87535,0.74826 -25.22174,-0.0373 -26.71363,-3.92514 z m -88.59645,-39.03553 c -4.84868,-4.84867 -1.47716,-10.97191 17.6482,-32.05214 l 19.88967,-21.922669 -18.28967,-0.959693 c -15.79649,-0.82887 -18.28968,-1.82672 -18.28968,-7.320083 0,-5.954608 1.8861,-6.30169 29.56344,-5.440307 23.24062,0.723302 29.75643,1.946672 30.46585,5.720083 0.49633,2.64 -7.76722,14.393008 -18.36344,26.117799 -10.59621,11.72479 -19.26585,22.16479 -19.26585,23.2 0,1.03521 9.46559,1.8822 21.03464,1.8822 18.30793,0 20.89571,0.72593 19.96293,5.6 -0.91636,4.78828 -5.49579,5.73164 -31.59316,6.50814 -16.7868,0.49948 -31.53012,-0.10051 -32.76293,-1.33333 z m 166.02,-5.38792 c -5.35747,-3.91746 -4.62029,-5.58476 10.50496,-23.7596 8.94672,-10.75057 17.74429,-20.459654 19.55018,-21.575743 6.93168,-4.284029 2.67421,-7.232231 -13.15056,-9.106442 -19.6249,-2.324278 -22.40573,-4.369565 -14.14941,-10.406739 10.92605,-7.989309 59.38336,-4.475562 59.38336,4.306016 0,1.431532 -8.90845,12.627174 -19.79658,24.879208 l -19.79657,22.27641 17.93069,0.95176 c 19.30067,1.02448 30.32284,8.03287 21.4567,13.64313 -7.25734,4.59226 -55.28151,3.65555 -61.93277,-1.208 z"
       id="path863" />
  </g>
</svg>
