<?xml version="1.0" encoding="UTF-8" standalone="no"?>
<svg
   xmlns:dc="http://purl.org/dc/elements/1.1/"
   xmlns:cc="http://creativecommons.org/ns#"
   xmlns:rdf="http://www.w3.org/1999/02/22-rdf-syntax-ns#"
   xmlns:svg="http://www.w3.org/2000/svg"
   xmlns="http://www.w3.org/2000/svg"
   version="1.1"
   id="svg851"
   width="500"
   height="500"
   viewBox="0 0 500 500">
  <metadata
     id="metadata857">
    <rdf:RDF>
      <cc:Work
         rdf:about="">
        <dc:format>image/svg+xml</dc:format>
        <dc:type
           rdf:resource="http://purl.org/dc/dcmitype/StillImage" />
        <dc:title></dc:title>
      </cc:Work>
    </rdf:RDF>
  </metadata>
  <defs
     id="defs855" />
  <g
     id="g859">
    <path
       style="fill:#000000"
       d="m 226.73337,500.6823 c -2.475,-0.19356 -11.925,-0.84013 -21,-1.43682 -9.075,-0.59668 -20.55,-1.48288 -25.5,-1.96932 -4.95,-0.48644 -14.175,-1.39541 -20.5,-2.01994 -44.68817,-4.41249 -68.714867,-10.3989 -87.818628,-21.88059 -21.48648,-12.91376 -35.34597,-31.23626 -41.30729,-54.60901 -2.86681,-11.24001 -3.12667,-32.69536 -0.53565,-44.2253 6.26404,-27.87474 21.98514,-52.72466 41.5586,-65.69056 8.39287,-5.55962 12.72322,-7.3355 20.976332,-8.60241 12.768546,-1.96005 12.126636,-1.61968 12.126636,-6.43019 0,-6.77714 2.76957,-20.89369 5.54679,-28.27207 5.41742,-14.39275 17.96317,-29.72686 31.95321,-39.05496 14.82241,-9.88309 36.73624,-18.36296 57.5,-22.25043 6.325,-1.1842 12.5125,-2.34638 13.75,-2.58263 2.08592,-0.39822 2.25023,-0.95687 2.25319,-7.66049 0.004,-8.43612 2.19982,-21.91442 5.13086,-31.49016 5.76435,-18.83224 17.14168,-32.00773 33.12459,-38.35988 11.72545,-4.66009 35.81579,-6.31024 49.64701,-3.40076 24.82373,5.22184 47.47191,24.57606 59.68096,51.00093 4.19509,9.07972 9.63804,27.73171 11.81093,40.47385 0.88678,5.20022 1.94761,9.7898 2.35739,10.19907 0.40979,0.40928 4.57007,3.06057 9.24507,5.89175 15.03192,9.10336 24.19692,16.20425 35.51703,27.51802 14.76118,14.75291 23.18629,26.1707 30.94445,41.93622 11.8819,24.14548 15.4821,38.79838 16.25297,66.15007 0.59281,21.03366 -0.61799,31.93955 -5.29223,47.66803 -9.12616,30.70886 -32.15544,56.86425 -62.60225,71.10017 -13.61527,6.36606 -29.0349,11.21742 -43.31997,13.62945 -20.95521,3.53827 -31.74772,4.14339 -79,4.42938 -26.4,0.15979 -50.025,0.13215 -52.5,-0.0614 z m 102.5,-19.46047 c 34.33821,-2.26059 62.7583,-11.4468 83.29903,-26.92471 18.87167,-14.22023 31.01693,-33.99415 36.26165,-59.03828 3.06032,-14.61335 3.06334,-37.00468 0.007,-52.29201 -6.2772,-31.39812 -22.17424,-59.11263 -45.87291,-79.97366 -7.0163,-6.17622 -23.01714,-17.72654 -24.55682,-17.72654 -0.35087,0 -0.63795,2.15094 -0.63795,4.77986 0,7.89991 -2.82391,28.06116 -5.43334,38.79124 -12.91331,53.10004 -47.77767,82.30793 -100.48125,84.17896 -15.52202,0.55105 -28.4864,-0.44403 -56.08541,-4.30483 -27.42184,-3.83601 -47.61187,-9.47513 -67.55302,-18.86767 -16.90127,-7.96073 -27.21043,-15.94128 -34.56398,-26.75674 -2.12373,-3.12355 -4.76921,-5.96733 -5.87885,-6.31951 -3.01232,-0.95608 -12.710376,1.31423 -19.504148,4.5659 -20.6874,9.90152 -36.35777,34.1913 -40.54852,62.85206 -1.57251,10.75444 -0.67425,22.36286 2.60646,33.68392 3.37325,11.64035 6.59411,17.40341 14.32263,25.62728 12.97467,13.80628 29.757893,22.18482 54.619428,27.26715 22.3153,4.56182 71.9727,9.2558 126,11.91045 11.67806,0.57381 68.01645,-0.40063 84,-1.45287 z m -32,-130.88642 c 31.52904,-10.21481 50.39231,-33.84195 59.13454,-74.06879 2.90144,-13.3508 2.66996,-50.58835 -0.40532,-65.20282 -8.66712,-41.1882 -29.81309,-67.7569 -57.22922,-71.90525 -9.91208,-1.4998 -28.99921,-0.60132 -35.5,1.67107 -14.30722,5.00117 -22.50637,16.02001 -26.56875,35.70574 -3.05164,14.78785 -2.39737,29.81353 2.20166,50.56249 2.98181,13.45271 2.45125,31.51082 -1.1348,38.62388 -2.94079,5.83317 -6.31199,7.48594 -11.1672,5.47485 -5.0194,-2.07909 -6.69763,-5.88914 -5.59068,-12.69238 1.82735,-11.23079 -0.66276,-34.0601 -4.08882,-37.48616 -1.49887,-1.49887 -20.33535,2.27886 -33.99163,6.81716 -40.05986,13.31282 -60.62224,37.34638 -58.96509,68.91908 0.38129,7.26467 0.86642,9.02404 3.87062,14.03727 11.76983,19.64077 51.22513,35.54833 101.43469,40.89637 20.60265,2.19448 23.72394,2.35082 42,2.10367 15.00802,-0.20295 16.61999,-0.41723 26,-3.45618 z M 411.90768,198.95218 c -2.14982,-2.28838 -2.17431,-2.72254 -2.17431,-38.54546 v -36.231 l 2.45455,-2.45454 c 3.24734,-3.24735 7.84356,-3.24735 11.0909,0 l 2.45455,2.45454 v 35.9106 c 0,34.81558 -0.0632,35.99094 -2.07258,38.54545 -2.76838,3.51943 -8.59847,3.67836 -11.75311,0.32041 z m -252.53945,-21.75813 -2.63486,-2.07258 v -37.27243 c 0,-36.30392 0.0533,-37.32064 2.04974,-39.127424 2.87146,-2.598635 8.4359,-2.413795 11.22248,0.37279 2.22246,2.222454 2.22778,2.315134 2.22778,38.786584 v 36.55881 l -2.80576,2.41341 c -3.44114,2.95994 -6.59393,3.06677 -10.05938,0.34084 z M 286.23337,83.058811 c -4.42049,-2.535151 -4.43495,-2.664907 -4.4682,-40.107927 -0.0187,-21.08234 0.36385,-36.5550101 0.92998,-37.6128501 0.52898,-0.98841 2.32898,-2.36342 4,-3.05558 3.55581,-1.47286001 8.44661,0.0102 10.07644,3.05558 1.05478,1.97088 1.37402,71.6907301 0.3406,74.3837921 -0.66341,1.728806 -5.42472,4.564802 -7.57916,4.514393 -0.71481,-0.01672 -2.19966,-0.546558 -3.29966,-1.177408 z"
       id="path863" />
  </g>
</svg>
