<?xml version="1.0" encoding="UTF-8" standalone="no"?>
<svg
   xmlns:dc="http://purl.org/dc/elements/1.1/"
   xmlns:cc="http://creativecommons.org/ns#"
   xmlns:rdf="http://www.w3.org/1999/02/22-rdf-syntax-ns#"
   xmlns:svg="http://www.w3.org/2000/svg"
   xmlns="http://www.w3.org/2000/svg"
   version="1.1"
   id="svg858"
   width="1306.6667"
   height="1237.3333"
   viewBox="0 0 1306.6667 1237.3333">
  <metadata
     id="metadata864">
    <rdf:RDF>
      <cc:Work
         rdf:about="">
        <dc:format>image/svg+xml</dc:format>
        <dc:type
           rdf:resource="http://purl.org/dc/dcmitype/StillImage" />
        <dc:title></dc:title>
      </cc:Work>
    </rdf:RDF>
  </metadata>
  <defs
     id="defs862" />
  <g
     id="g866">
    <path
       style="fill:#000000;stroke-width:1.33333"
       d="m 265.33334,1172.911 v -71.8862 l -10.33333,-0.9195 c -31.2921,-2.7843 -55.8361,-13.8367 -76.96907,-34.6599 -16.1711,-15.9341 -26.5677,-35.1611 -28.8288,-53.3148 -1.4554,-11.6849 -3.7458,-322.5478 -3.8903,-527.99999 -0.06,-85.06666 -0.6137,-170.33141 -1.2308,-189.47719 -1.2678,-39.33422 -1.864,-41.95091 -12.0866,-53.04111 -7.631,-8.2786 -16.569,-11.48177 -34.717003,-12.44175 -16.2256,-0.85826 -20.9403,0.58296 -32.8323,10.03632 -8.631,6.8611 -14.2692,17.86544 -17.2102,33.5904 -1.1659,6.23334 -3.4159,13.64527 -5.0002,16.47095 -4.9635,8.85297 -16.455,12.45095 -27.7024,8.67359 -6.1437002,-2.06332 -9.1222002,-4.82378 -12.0247002,-11.14454 -9.278,-20.20464 10.7659002,-64.87922 38.3570002,-85.49129 20.4098,-15.24728 32.2229,-19.64398 52.4687,-19.52833 25.093003,0.14333 47.523603,8.85385 65.445103,25.41448 10.7884,9.96908 15.952,16.81 24.9107,33.00205 l 6.67444,12.06357 0.99432,97.60309 0.9943,97.60309 h 460.93932 460.93928 l 0.8846,-68.21927 C 1115.602,341.72405 1116,297.92548 1116,281.91451 v -29.11088 l 6.8354,-12.33651 c 11.5349,-20.81828 23.6527,-34.14969 41.1646,-45.2873 17.0379,-10.83611 29.0118,-13.80497 51.1003,-12.67003 23.4366,1.20422 36.2643,6.27719 54.4856,21.54737 27.4212,22.98 44.4976,66.21755 33.5413,84.92658 -4.3792,7.47792 -8.9001,9.81354 -18.9954,9.81354 -7.8221,0 -9.6533,-0.49369 -13.9297,-3.75544 -7.1771,-5.47428 -8.9699,-8.97853 -10.3722,-20.27364 -2.5327,-20.39985 -11.2488,-34.21542 -26.2264,-41.57044 -6.9919,-3.43349 -8.839,-3.73381 -22.9648,-3.73381 -14.6934,0 -15.7512,0.19191 -24.3261,4.41332 -17.9065,8.81532 -19.966,12.70387 -22.3786,42.25335 -0.9061,11.09724 -1.8399,142.05509 -2.5957,363.99999 -0.7407,217.5329 -1.696,352.7737 -2.5645,363.06139 -2.0876,24.7282 -8.5795,38.6297 -27.3579,58.5824 -22.72,24.1409 -47.0648,36.1666 -77.7492,38.4059 l -12.3333,0.9001 v 71.8584 71.8585 h -61.33338 -61.33333 v -72 -72 H 653.33335 388.00001 v 72 72 h -61.33334 -61.33333 z m 727.68291,-23.1137 -0.34956,-49.6667 h -12.66667 -12.66666 l 0.0317,12.3333 c 0.0175,6.7834 0.16745,28.7972 0.33333,48.9195 l 0.3016,36.5862 5,0.523 c 2.75,0.2877 8.45731,0.6239 12.6829,0.7472 l 7.68289,0.2241 z m -653.95403,0.1128 c 0.45239,-26.5214 0.51304,-48.7213 0.13479,-49.3334 -0.37824,-0.612 -6.05231,-1.1128 -12.60903,-1.1128 h -11.92131 v 45.1667 c 0,24.8417 0.375,47.0417 0.83334,49.3333 l 0.83333,4.1667 h 10.95319 10.95319 l 0.8225,-48.2206 z m 730.27118,-100.0239 c 17.0875,-3.2036 30.2628,-13.3369 39.0279,-30.017 l 4.9168,-9.3567 0.9144,-257.52427 0.9144,-257.52429 h -36.8868 -36.8867 v 278.64966 278.6497 l 10.3333,-0.7511 c 5.6833,-0.4131 13.6333,-1.3698 17.6667,-2.126 z M 265.33334,773.46394 v -278 h -36.87859 -36.87859 l 0.95847,258.11098 0.95847,258.11098 6.06781,9.5557 c 14.29142,22.5063 27.4265,30.0108 52.77243,30.1506 l 13,0.072 z m 122.66667,0 v -278 h -36.66667 -36.66667 v 278 277.99996 h 36.66667 36.66667 z m 122.66667,0 v -278 h -38 -38 v 278 277.99996 h 38 38 z m 118.66667,0 v -278 h -36.66667 -36.66667 v 278 277.99996 h 36.66667 36.66667 z m 122.66667,0 v -278 h -37.33334 -37.33333 v 278 277.99996 h 37.33333 37.33334 z m 121.33334,0 v -278 h -36.51534 -36.51533 l -1.01467,4.33334 c -0.55807,2.38333 -1.24784,127.48333 -1.53284,277.99999 l -0.51819,273.66663 h 38.04819 38.04818 z m 120,0 v -278 h -37.33334 -37.33333 v 278 277.99996 h 37.33333 37.33334 z M 672.91642,298.12608 c -3.52931,-0.62241 -7.86682,-2.08166 -9.63892,-3.24278 -7.80704,-5.11538 -10.22435,-19.39727 -4.97942,-29.41935 1.53512,-2.93333 16.65495,-22.62627 33.59959,-43.76207 16.94465,-21.13581 30.46418,-38.98581 30.04339,-39.66666 -0.4208,-0.68087 -5.07968,-1.24769 -10.35307,-1.25963 -5.27339,-0.012 -16.32771,-0.57932 -24.56516,-1.26085 -23.11681,-1.91259 -30.56188,-6.38863 -32.01101,-19.24525 -1.18748,-10.53526 4.90313,-21.90142 13.70712,-25.57997 3.06758,-1.28171 18.59601,-1.9975 58.47433,-2.69538 l 54.29758,-0.95023 7.25398,7.16389 c 4.03426,3.98414 8.20555,9.65547 9.3978,12.77737 2.07616,5.43634 2.03878,5.84293 -1.18506,12.8847 -2.01415,4.39948 -16.25882,23.34482 -36.06739,47.96944 l -32.73849,40.6982 16.92416,0.85807 c 47.23404,2.39476 52.55669,4.76081 52.72772,23.43892 0.0992,10.83153 -2.21152,15.05533 -10.55626,19.29612 -4.95174,2.51646 -8.13854,2.67964 -56.58062,2.89689 -28.23334,0.12667 -54.22095,-0.27903 -57.75027,-0.90143 z M 399.20628,179.52943 c -8.8699,-0.58072 -18.23167,-1.75044 -20.80394,-2.59936 -8.19737,-2.70538 -14.40233,-11.99577 -14.40233,-21.56392 0,-7.3688 3.34575,-12.04106 57.15991,-79.822556 6.66074,-8.38954 11.77569,-15.589542 11.36652,-16.000004 -0.40918,-0.410462 -11.945,-1.059749 -25.63519,-1.442861 -23.32281,-0.652676 -25.26676,-0.904959 -30.85095,-4.003783 -11.01772,-6.114061 -15.1091,-19.390519 -9.41508,-30.551737 4.35614,-8.538712 9.43022,-10.690239 28.98407,-12.289909 20.97185,-1.7156733 88.33444,-0.663077 95.42716,1.491128 7.4213,2.253997 13.66108,8.351089 15.58728,15.230827 3.165,11.304235 -0.54573,19.454481 -18.58493,40.820039 -20.45157,24.22274 -48.03879,59.126886 -48.03879,60.780056 0,1.033 7.86275,1.81256 24.97971,2.47663 15.41536,0.59805 26.57935,1.63749 29.15757,2.71474 8.44067,3.52673 14.83556,16.64735 12.69086,26.03827 -2.43322,10.6542 -8.4244,15.28828 -22.27655,17.23055 -12.99631,1.82225 -66.11639,2.75083 -85.34532,1.49189 z"
       id="path870" />
  </g>
</svg>
