<?xml version="1.0" encoding="UTF-8" standalone="no"?>
<svg
   xmlns:dc="http://purl.org/dc/elements/1.1/"
   xmlns:cc="http://creativecommons.org/ns#"
   xmlns:rdf="http://www.w3.org/1999/02/22-rdf-syntax-ns#"
   xmlns:svg="http://www.w3.org/2000/svg"
   xmlns="http://www.w3.org/2000/svg"
   version="1.1"
   id="svg1522"
   width="406.21487"
   height="406.21487"
   viewBox="0 0 406.21487 406.21487">
  <metadata
     id="metadata1528">
    <rdf:RDF>
      <cc:Work
         rdf:about="">
        <dc:format>image/svg+xml</dc:format>
        <dc:type
           rdf:resource="http://purl.org/dc/dcmitype/StillImage" />
        <dc:title></dc:title>
      </cc:Work>
    </rdf:RDF>
  </metadata>
  <defs
     id="defs1526" />
  <g
     id="g1530">
    <g
       id="g2095"
       transform="translate(1.7619037,1.7618994)">
      <path
         style="fill:#d0d0d0;fill-opacity:1;stroke-width:0.793388"
         d="m 195.81818,344.58199 c 0.57272,-0.22919 1.25702,-0.201 1.52066,0.0626 0.26364,0.26363 -0.20496,0.45115 -1.04132,0.4167 -0.92426,-0.0381 -1.11225,-0.22607 -0.47934,-0.47933 z M 205.4876,11.504132 c 1.02486,-1.090909 2.04189,-1.983471 2.26007,-1.983471 0.21818,0 -0.44182,0.892562 -1.46668,1.983471 -1.02486,1.090909 -2.04189,1.983471 -2.26007,1.983471 -0.21818,0 0.44182,-0.892562 1.46668,-1.983471 z"
         id="path2111" />
      <path
         style="fill:#b9b9b9;fill-opacity:1;stroke-width:0.793388"
         d="m 201.91735,15.07438 c 0.78981,-0.872727 1.61453,-1.586777 1.83271,-1.586777 0.21819,0 -0.24951,0.71405 -1.03932,1.586777 -0.78981,0.872727 -1.61453,1.586777 -1.83271,1.586777 -0.21818,0 0.24951,-0.71405 1.03932,-1.586777 z"
         id="path2109" />
      <path
         style="fill:#a3a3a3;fill-opacity:1;stroke-width:0.793388"
         d="m 182.47934,34.609543 c 0,-0.164752 0.62479,-0.789546 1.38843,-1.38843 1.25836,-0.986873 1.28642,-0.958811 0.29955,0.299548 -1.03646,1.321585 -1.68798,1.741867 -1.68798,1.088882 z M 198.7438,18.247934 c 0.78981,-0.872728 1.61453,-1.586777 1.83271,-1.586777 0.21818,0 -0.24951,0.714049 -1.03932,1.586777 -0.78981,0.872727 -1.61453,1.586776 -1.83271,1.586776 -0.21819,0 0.24951,-0.714049 1.03932,-1.586776 z"
         id="path2107" />
      <path
         style="fill:#8c8c8c;fill-opacity:1;stroke-width:0.793388"
         d="m 184.8595,32.229377 c 0,-0.164751 0.62479,-0.789545 1.38843,-1.388429 1.25836,-0.986873 1.28642,-0.958811 0.29955,0.299547 -1.03646,1.321586 -1.68798,1.741868 -1.68798,1.088882 z m 10.31405,-10.314049 c 0,-0.164752 0.62479,-0.789545 1.38843,-1.38843 1.25836,-0.986873 1.28642,-0.95881 0.29955,0.299548 -1.03646,1.321585 -1.68798,1.741868 -1.68798,1.088882 z"
         id="path2105" />
      <path
         style="fill:#767676;fill-opacity:1;stroke-width:0.793388"
         d="m 187.23967,29.849212 c 0,-0.164752 0.62479,-0.789545 1.38843,-1.38843 1.25836,-0.986872 1.28642,-0.95881 0.29955,0.299548 -1.03646,1.321585 -1.68798,1.741868 -1.68798,1.088882 z m 5.55372,-5.553719 c 0,-0.164752 0.62479,-0.789545 1.38843,-1.38843 1.25836,-0.986872 1.28642,-0.95881 0.29955,0.299548 -1.03646,1.321585 -1.68798,1.741868 -1.68798,1.088882 z"
         id="path2103" />
      <path
         style="fill:#606060;fill-opacity:1;stroke-width:0.793388"
         d="m 146.96092,254.67768 c 0,-1.52727 0.16328,-2.15206 0.36284,-1.38843 0.19956,0.76364 0.19956,2.01323 0,2.77686 -0.19956,0.76364 -0.36284,0.13884 -0.36284,-1.38843 z M 190.80991,26.181818 c 0.78981,-0.872727 1.61453,-1.586777 1.83272,-1.586777 0.21818,0 -0.24952,0.71405 -1.03933,1.586777 -0.78981,0.872727 -1.61453,1.586777 -1.83271,1.586777 -0.21818,0 0.24951,-0.71405 1.03932,-1.586777 z"
         id="path2101" />
      <path
         style="fill:#494949;fill-opacity:1;stroke-width:0.793388"
         d="m 147.0308,247.53719 c 0,-2.83637 0.144,-3.9967 0.31999,-2.57852 0.17599,1.41819 0.17599,3.73885 0,5.15703 -0.17599,1.41818 -0.31999,0.25785 -0.31999,-2.57851 z m 2.12622,-42.34914 c 0,-0.16475 0.6248,-0.78954 1.38843,-1.38843 1.25836,-0.98687 1.28643,-0.95881 0.29955,0.29955 -1.03645,1.32159 -1.68798,1.74187 -1.68798,1.08888 z M 215.00826,2.8740057 c 0,-0.1647514 0.62479,-0.7895448 1.38843,-1.3884298 1.25836,-0.98687253 1.28642,-0.95881012 0.29955,0.299548 -1.03646,1.3215852 -1.68798,1.7418676 -1.68798,1.0888818 z"
         id="path2099" />
      <path
         style="fill:#333333;fill-opacity:1;stroke-width:0.793388"
         d="M 195.96694,405.71183 C 137.37048,402.46261 86.857228,361.07559 72.633651,304.66115 69.597893,292.62054 68.732576,285.30703 68.691036,271.33884 68.650022,257.54719 69.65259,249.51004 73.367079,233.85304 85.042868,184.63823 118.75585,117.78789 159.09157,63.867768 171.83195,46.836625 180.75466,36.815415 200.41706,17.454545 L 217.74058,0.39669421 218.70876,14.280992 c 2.74262,39.330701 4.96967,48.699637 17.42145,73.29008 9.09207,17.955488 16.10097,28.686538 45.92459,70.313228 29.85295,41.66764 34.75664,49.26404 43.60664,67.55176 9.44257,19.51224 12.93629,34.25349 12.04533,50.82347 -1.90967,35.51588 -14.61058,64.75756 -38.82653,89.39151 -24.35495,24.77534 -55.8706,38.62895 -91.01247,40.00716 -4.14546,0.16258 -9.50083,0.18671 -11.90083,0.0536 z m 25.44101,-36.31165 c 20.51375,-3.96958 36.89661,-12.73177 51.97063,-27.79594 19.69922,-19.68634 29.34793,-42.46125 29.26412,-69.07532 -0.0328,-10.40313 -0.19732,-11.57884 -2.59537,-18.54176 -6.12935,-17.79704 -15.13922,-32.58987 -45.54489,-74.77769 -22.66407,-31.44637 -31.23766,-44.04701 -39.88176,-58.61443 -6.71374,-11.3143 -15.13834,-28.274999 -18.663,-37.573011 -2.06089,-5.436614 -2.85533,-6.775557 -3.50918,-5.914402 -33.88372,44.626213 -60.86883,92.766103 -76.85631,137.107243 -13.00694,36.07462 -15.46038,59.34897 -8.7993,83.47376 11.09382,40.17906 44.31308,67.91862 87.58727,73.13924 4.92335,0.59396 20.95734,-0.25301 27.02779,-1.42769 z m -34.16828,-26.26141 c -14.37365,-2.90621 -25.60581,-9.16025 -36.91656,-20.55504 -11.93566,-12.02434 -19.4553,-25.8049 -22.76766,-41.72423 -2.14965,-10.33132 -1.63113,-25.58919 1.24607,-36.66628 2.57349,-9.90779 7.34262,-20.60918 12.80695,-28.73734 4.69959,-6.99061 10.45016,-13.15752 9.6652,-10.36497 -0.92317,3.28425 -3.6598,28.96086 -4.14344,38.87603 -0.89353,18.31865 2.12817,35.33386 8.77047,49.38658 9.59502,20.29962 24.85627,36.69724 43.35136,46.57939 4.53824,2.42484 5.97383,3.53493 5.03655,3.89461 -2.12291,0.81463 -11.48379,0.43647 -17.04894,-0.68875 z"
         id="path2097" />
    </g>
  </g>
</svg>
